<svg width="96" height="96" viewBox="0 0 96 96" fill="none" xmlns="http://www.w3.org/2000/svg">
<mask id="mask0" mask-type="alpha" maskUnits="userSpaceOnUse" x="0" y="0" width="96" height="96">
<rect width="96" height="96" rx="26.664" fill="white"/>
</mask>
<g mask="url(#mask0)">
<rect width="96" height="96" rx="26.6666" fill="url(#paint0_linear)"/>
<path d="M72 96C98.5097 96 120 74.5097 120 48C120 21.4903 98.5097 0 72 0C45.4903 0 24 21.4903 24 48C24 74.5097 45.4903 96 72 96Z" fill="url(#paint1_linear)" fill-opacity="0.35"/>
<path d="M72 77.4545C88.2673 77.4545 101.455 64.2673 101.455 48C101.455 31.7327 88.2673 18.5454 72 18.5454C55.7327 18.5454 42.5454 31.7327 42.5454 48C42.5454 64.2673 55.7327 77.4545 72 77.4545Z" fill="url(#paint2_linear)" fill-opacity="0.35"/>
<path d="M63.1022 62.2203C63.7839 62.2203 64.3635 61.9476 65.0453 61.5555L84.9199 50.0669C86.3351 49.2317 86.8295 48.6862 86.8295 47.7828C86.8295 46.8793 86.3351 46.3339 84.9199 45.5157L65.0453 34.0101C64.3635 33.618 63.7839 33.3623 63.1022 33.3623C61.8407 33.3623 61.0566 34.3169 61.0566 35.7998V59.7657C61.0566 61.2487 61.8407 62.2203 63.1022 62.2203Z" fill="white"/>
</g>
<defs>
<linearGradient id="paint0_linear" x1="-36.2728" y1="43.0911" x2="44.4548" y2="136.364" gradientUnits="userSpaceOnUse">
<stop stop-color="#2EA7FF"/>
<stop offset="1" stop-color="#0040E3"/>
</linearGradient>
<linearGradient id="paint1_linear" x1="37.0912" y1="-25.6365" x2="-14.1818" y2="70.3635" gradientUnits="userSpaceOnUse">
<stop stop-color="white"/>
<stop offset="1" stop-color="white" stop-opacity="0.15"/>
</linearGradient>
<linearGradient id="paint2_linear" x1="25.279" y1="49.2696" x2="71.4921" y2="93.9592" gradientUnits="userSpaceOnUse">
<stop stop-color="white"/>
<stop offset="1" stop-color="white" stop-opacity="0.15"/>
</linearGradient>
</defs>
</svg>
