<svg width="141" height="50" viewBox="0 0 141 50" fill="none" xmlns="http://www.w3.org/2000/svg">
<path fill-rule="evenodd" clip-rule="evenodd" d="M20.5794 0C32.8959 3.83533 28.6731 14.9927 28.6731 14.9927C28.6731 14.9927 17.7642 10.46 20.5794 0ZM83.6535 24.7966L83.6287 14.3828L78.521 22.9618H76.711L71.6281 14.606V24.7966H67.8593V7.44032H71.1818L77.678 18.226L84.075 7.44032H87.3727L87.4223 24.7966H83.6535ZM104.334 18.1764C104.334 18.226 104.309 18.5731 104.26 19.2178H94.1684C94.3502 20.0443 94.78 20.6972 95.4577 21.1766C96.1355 21.6559 96.9785 21.8956 97.9868 21.8956C98.681 21.8956 99.2926 21.7964 99.8216 21.5981C100.367 21.3832 100.871 21.0526 101.334 20.6063L103.392 22.8378C102.136 24.2759 100.301 24.995 97.8876 24.995C96.3834 24.995 95.0527 24.7057 93.8957 24.1272C92.7386 23.5321 91.846 22.7139 91.2178 21.6725C90.5897 20.6311 90.2756 19.4492 90.2756 18.1268C90.2756 16.821 90.5814 15.6474 91.193 14.606C91.8212 13.5481 92.6725 12.7299 93.7469 12.1513C94.8379 11.5562 96.0528 11.2587 97.3917 11.2587C98.6976 11.2587 99.8794 11.5397 100.937 12.1017C101.995 12.6637 102.822 13.4737 103.417 14.5316C104.028 15.573 104.334 16.7879 104.334 18.1764ZM97.4165 14.1845C96.5404 14.1845 95.8049 14.4324 95.2098 14.9283C94.6147 15.4242 94.2511 16.1019 94.1188 16.9615H100.689C100.557 16.1185 100.194 15.449 99.5984 14.9531C99.0034 14.4407 98.2761 14.1845 97.4165 14.1845ZM106.909 6.39894H110.777V24.7966H106.909V6.39894ZM119.748 11.2587C121.814 11.2587 123.401 11.7546 124.508 12.7464C125.616 13.7216 126.169 15.2011 126.169 17.1846V24.7966H122.549V23.1354C121.822 24.3751 120.467 24.995 118.483 24.995C117.458 24.995 116.566 24.8214 115.805 24.4743C115.061 24.1272 114.491 23.6478 114.094 23.0362C113.698 22.4246 113.499 21.7303 113.499 20.9534C113.499 19.7137 113.962 18.7384 114.888 18.0277C115.83 17.3169 117.276 16.9615 119.227 16.9615H122.301C122.301 16.1185 122.045 15.4738 121.533 15.0275C121.02 14.5647 120.252 14.3332 119.227 14.3332C118.516 14.3332 117.814 14.449 117.119 14.6804C116.442 14.8953 115.863 15.1928 115.384 15.573L113.995 12.8704C114.723 12.3579 115.59 11.9612 116.599 11.6802C117.624 11.3992 118.673 11.2587 119.748 11.2587ZM119.45 22.3915C120.111 22.3915 120.698 22.2428 121.211 21.9452C121.723 21.6312 122.087 21.1766 122.301 20.5815V19.2178H119.648C118.062 19.2178 117.268 19.7385 117.268 20.7799C117.268 21.2758 117.458 21.6725 117.838 21.97C118.235 22.251 118.772 22.3915 119.45 22.3915ZM78.9177 49.7966L75.5704 44.9616H75.3721H71.876V49.7966H67.8593V32.4403H75.3721C76.9094 32.4403 78.24 32.6965 79.364 33.209C80.5046 33.7214 81.3807 34.4487 81.9923 35.3909C82.6039 36.3331 82.9097 37.4488 82.9097 38.7382C82.9097 40.0275 82.5956 41.1433 81.9675 42.0855C81.3559 43.0111 80.4798 43.7219 79.3392 44.2178L83.232 49.7966H78.9177ZM78.8433 38.7382C78.8433 37.7629 78.5293 37.0191 77.9011 36.5066C77.273 35.9777 76.3556 35.7132 75.1489 35.7132H71.876V41.7631H75.1489C76.3556 41.7631 77.273 41.4986 77.9011 40.9697C78.5293 40.4407 78.8433 39.6969 78.8433 38.7382ZM92.1668 49.995C90.7618 49.995 89.4973 49.7057 88.3732 49.1272C87.2657 48.5321 86.3979 47.7139 85.7698 46.6725C85.1416 45.6311 84.8276 44.4492 84.8276 43.1268C84.8276 41.8045 85.1416 40.6226 85.7698 39.5812C86.3979 38.5398 87.2657 37.7299 88.3732 37.1513C89.4973 36.5562 90.7618 36.2587 92.1668 36.2587C93.5718 36.2587 94.8281 36.5562 95.9356 37.1513C97.0431 37.7299 97.9109 38.5398 98.5391 39.5812C99.1672 40.6226 99.4813 41.8045 99.4813 43.1268C99.4813 44.4492 99.1672 45.6311 98.5391 46.6725C97.9109 47.7139 97.0431 48.5321 95.9356 49.1272C94.8281 49.7057 93.5718 49.995 92.1668 49.995ZM92.1668 46.8212C93.1586 46.8212 93.9686 46.4906 94.5967 45.8295C95.2414 45.1517 95.5637 44.2509 95.5637 43.1268C95.5637 42.0028 95.2414 41.1102 94.5967 40.449C93.9686 39.7713 93.1586 39.4324 92.1668 39.4324C91.175 39.4324 90.3568 39.7713 89.7121 40.449C89.0675 41.1102 88.7451 42.0028 88.7451 43.1268C88.7451 44.2509 89.0675 45.1517 89.7121 45.8295C90.3568 46.4906 91.175 46.8212 92.1668 46.8212ZM106.555 49.995C105.447 49.995 104.364 49.8627 103.306 49.5983C102.249 49.3172 101.405 48.9701 100.777 48.5569L102.067 45.7799C102.662 46.1601 103.381 46.4741 104.224 46.7221C105.067 46.9535 105.893 47.0692 106.703 47.0692C108.34 47.0692 109.158 46.6642 109.158 45.8543C109.158 45.4741 108.935 45.2013 108.489 45.036C108.042 44.8707 107.356 44.7302 106.431 44.6145C105.34 44.4492 104.439 44.2591 103.728 44.0442C103.017 43.8293 102.397 43.4492 101.868 42.9037C101.356 42.3582 101.1 41.5813 101.1 40.573C101.1 39.73 101.339 38.9861 101.819 38.3415C102.315 37.6803 103.025 37.1678 103.951 36.8042C104.893 36.4405 106.001 36.2587 107.274 36.2587C108.216 36.2587 109.15 36.3661 110.075 36.581C111.018 36.7794 111.794 37.0604 112.406 37.4241L111.117 40.1763C109.943 39.5151 108.662 39.1845 107.274 39.1845C106.447 39.1845 105.827 39.3002 105.414 39.5316C105.001 39.763 104.794 40.0606 104.794 40.4242C104.794 40.8375 105.017 41.1267 105.464 41.292C105.91 41.4573 106.621 41.6144 107.596 41.7631C108.687 41.945 109.579 42.1433 110.274 42.3582C110.968 42.5566 111.571 42.9285 112.084 43.474C112.596 44.0194 112.852 44.7798 112.852 45.7551C112.852 46.5816 112.604 47.3171 112.109 47.9618C111.613 48.6065 110.885 49.1106 109.927 49.4743C108.984 49.8214 107.86 49.995 106.555 49.995ZM119.727 49.995C118.619 49.995 117.537 49.8627 116.479 49.5983C115.421 49.3172 114.578 48.9701 113.95 48.5569L115.239 45.7799C115.834 46.1601 116.553 46.4741 117.396 46.7221C118.239 46.9535 119.066 47.0692 119.875 47.0692C121.512 47.0692 122.33 46.6642 122.33 45.8543C122.33 45.4741 122.107 45.2013 121.661 45.036C121.214 44.8707 120.528 44.7302 119.603 44.6145C118.512 44.4492 117.611 44.2591 116.9 44.0442C116.189 43.8293 115.569 43.4492 115.041 42.9037C114.528 42.3582 114.272 41.5813 114.272 40.573C114.272 39.73 114.512 38.9861 114.991 38.3415C115.487 37.6803 116.198 37.1678 117.123 36.8042C118.065 36.4405 119.173 36.2587 120.446 36.2587C121.388 36.2587 122.322 36.3661 123.248 36.581C124.19 36.7794 124.967 37.0604 125.578 37.4241L124.289 40.1763C123.115 39.5151 121.834 39.1845 120.446 39.1845C119.619 39.1845 118.999 39.3002 118.586 39.5316C118.173 39.763 117.966 40.0606 117.966 40.4242C117.966 40.8375 118.189 41.1267 118.636 41.292C119.082 41.4573 119.793 41.6144 120.768 41.7631C121.859 41.945 122.752 42.1433 123.446 42.3582C124.14 42.5566 124.743 42.9285 125.256 43.474C125.768 44.0194 126.025 44.7798 126.025 45.7551C126.025 46.5816 125.777 47.3171 125.281 47.9618C124.785 48.6065 124.058 49.1106 123.099 49.4743C122.157 49.8214 121.033 49.995 119.727 49.995ZM133.792 36.2587C135.858 36.2587 137.445 36.7546 138.552 37.7464C139.66 38.7216 140.213 40.2011 140.213 42.1846V49.7966H136.593V48.1354C135.866 49.3751 134.511 49.995 132.527 49.995C131.502 49.995 130.61 49.8214 129.849 49.4743C129.105 49.1272 128.535 48.6478 128.138 48.0362C127.742 47.4246 127.543 46.7303 127.543 45.9534C127.543 44.7137 128.006 43.7384 128.932 43.0277C129.874 42.3169 131.32 41.9615 133.271 41.9615H136.345C136.345 41.1185 136.089 40.4738 135.577 40.0275C135.064 39.5647 134.296 39.3332 133.271 39.3332C132.56 39.3332 131.858 39.449 131.163 39.6804C130.486 39.8953 129.907 40.1928 129.428 40.573L128.039 37.8704C128.766 37.3579 129.634 36.9612 130.643 36.6802C131.667 36.3992 132.717 36.2587 133.792 36.2587ZM133.494 47.3915C134.155 47.3915 134.742 47.2428 135.254 46.9452C135.767 46.6311 136.13 46.1766 136.345 45.5815V44.2178H133.692C132.105 44.2178 131.312 44.7385 131.312 45.7799C131.312 46.2758 131.502 46.6725 131.882 46.97C132.279 47.251 132.816 47.3915 133.494 47.3915ZM4.03993 23.3607H53.658C45.9162 4.88137 30.0806 19.5254 30.0806 19.5254C30.0806 19.5254 12.1337 4.18404 4.03993 23.3607ZM3.33654 40.794C3.33654 40.794 -0.88627 33.472 0.169434 26.15L51.8989 28.242C51.8989 33.472 50.1394 35.9127 50.1394 35.9127L3.33654 40.794ZM8.96654 42.886L11.078 47.4187L50.4909 47.07C50.4909 47.07 54.0099 42.886 54.0099 39.0507L8.96654 42.886Z" fill="black"/>
</svg>
