<svg width="232" height="60" viewBox="0 0 232 60" fill="none" xmlns="http://www.w3.org/2000/svg">
<path d="M72.875 8.63352H79.0597V25H83.9119V8.63352H90.0866V4.63636H72.875V8.63352ZM94.7177 25.2585C96.8455 25.2585 98.3171 24.4332 99.1523 22.8722H99.2717V25H103.846V14.6193C103.846 11.3878 100.972 9.52841 97.0842 9.52841C92.9776 9.52841 90.6509 11.5966 90.2631 14.3807L94.7475 14.5398C94.9563 13.5653 95.7617 12.9688 97.0444 12.9688C98.2376 12.9688 98.9933 13.5455 98.9933 14.5696V14.6193C98.9933 15.554 97.979 15.7528 95.3739 15.9815C92.2816 16.2401 89.6964 17.3835 89.6964 20.7642C89.6964 23.7869 91.7944 25.2585 94.7177 25.2585ZM96.2191 22.0767C95.0955 22.0767 94.3001 21.5398 94.3001 20.5256C94.3001 19.5412 95.0756 18.9446 96.4577 18.7358C97.3626 18.6065 98.4762 18.4077 99.0231 18.1193V19.571C99.0231 21.0625 97.7702 22.0767 96.2191 22.0767ZM106.819 25H111.681V16.7074C111.681 14.8878 112.973 13.6648 114.713 13.6648C115.29 13.6648 116.155 13.7642 116.623 13.9233V9.69744C116.215 9.58807 115.708 9.51847 115.26 9.51847C113.59 9.51847 112.257 10.4929 111.701 12.5114H111.542V9.72727H106.819V25ZM124.93 30.9162C129.534 30.9162 132.676 28.8182 132.676 25.0597V9.72727H127.833V12.3423H127.694C127.108 10.9403 125.775 9.52841 123.369 9.52841C120.177 9.52841 117.284 11.9844 117.284 17.3438C117.284 22.5341 120.038 24.7912 123.389 24.7912C125.636 24.7912 127.137 23.7472 127.714 22.3352H127.883V25.0199C127.883 26.8494 126.69 27.5455 125.059 27.5455C123.498 27.5455 122.564 26.9489 122.305 26.1335L117.701 26.392C118.059 28.9375 120.575 30.9162 124.93 30.9162ZM125.079 21.2514C123.279 21.2514 122.275 19.7898 122.275 17.3438C122.275 14.9077 123.27 13.3267 125.079 13.3267C126.859 13.3267 127.893 14.8679 127.893 17.3438C127.893 19.7997 126.849 21.2514 125.079 21.2514ZM142.915 25.2884C146.922 25.2884 149.557 23.3494 150.114 20.3466L145.649 20.2173C145.271 21.2315 144.277 21.7784 143.004 21.7784C141.135 21.7784 139.982 20.5355 139.982 18.6662V18.5369H150.163V17.3239C150.163 12.2926 147.101 9.52841 142.766 9.52841C138.152 9.52841 135.189 12.6903 135.189 17.4233C135.189 22.3153 138.112 25.2884 142.915 25.2884ZM139.982 15.7131C140.051 14.1918 141.254 13.0384 142.865 13.0384C144.466 13.0384 145.619 14.152 145.639 15.7131H139.982ZM161.267 9.72727H158.513V6.06818H153.651V9.72727H151.632V13.3068H153.651V20.7344C153.621 23.8267 155.63 25.3778 159.06 25.2188C160.233 25.1591 161.078 24.9205 161.546 24.7812L160.81 21.2713C160.601 21.321 160.114 21.4205 159.746 21.4205C158.961 21.4205 158.513 21.1023 158.513 20.1974V13.3068H161.267V9.72727ZM72.875 38.6335H79.0597V55H83.9119V38.6335H90.0866V34.6364H72.875V38.6335ZM94.7177 55.2585C96.8455 55.2585 98.3171 54.4332 99.1523 52.8722H99.2717V55H103.846V44.6193C103.846 41.3878 100.972 39.5284 97.0842 39.5284C92.9776 39.5284 90.6509 41.5966 90.2631 44.3807L94.7475 44.5398C94.9563 43.5653 95.7617 42.9688 97.0444 42.9688C98.2376 42.9688 98.9933 43.5455 98.9933 44.5696V44.6193C98.9933 45.554 97.979 45.7528 95.3739 45.9815C92.2816 46.2401 89.6964 47.3835 89.6964 50.7642C89.6964 53.7869 91.7944 55.2585 94.7177 55.2585ZM96.2191 52.0767C95.0955 52.0767 94.3001 51.5398 94.3001 50.5256C94.3001 49.5412 95.0756 48.9446 96.4577 48.7358C97.3626 48.6065 98.4762 48.4077 99.0231 48.1193V49.571C99.0231 51.0625 97.7702 52.0767 96.2191 52.0767ZM110.955 39.7273H106.023L110.239 47.3636L105.804 55H110.736L113.471 49.929L116.275 55H121.137L116.712 47.3636L120.978 39.7273H116.076L113.471 44.7585L110.955 39.7273ZM123.197 55H128.06V39.7273H123.197V55ZM125.634 37.9474C127.016 37.9474 128.129 36.9034 128.129 35.6207C128.129 34.3381 127.016 33.304 125.634 33.304C124.261 33.304 123.138 34.3381 123.138 35.6207C123.138 36.9034 124.261 37.9474 125.634 37.9474Z" fill="white"/>
<mask id="mask0" mask-type="alpha" maskUnits="userSpaceOnUse" x="0" y="0" width="60" height="60">
<rect width="60" height="60" rx="16.665" fill="white"/>
</mask>
<g mask="url(#mask0)">
<rect width="60" height="60" rx="16.6667" fill="url(#paint0_linear)"/>
<path d="M45 60C61.5685 60 75 46.5685 75 30C75 13.4315 61.5685 0 45 0C28.4315 0 15 13.4315 15 30C15 46.5685 28.4315 60 45 60Z" fill="url(#paint1_linear)" fill-opacity="0.35"/>
<path d="M44.9999 48.409C55.167 48.409 63.409 40.167 63.409 29.9999C63.409 19.8329 55.167 11.5908 44.9999 11.5908C34.8329 11.5908 26.5908 19.8329 26.5908 29.9999C26.5908 40.167 34.8329 48.409 44.9999 48.409Z" fill="url(#paint2_linear)" fill-opacity="0.35"/>
<path d="M39.4391 38.8878C39.8652 38.8878 40.2274 38.7174 40.6535 38.4723L53.0752 31.2919C53.9597 30.7699 54.2687 30.429 54.2687 29.8644C54.2687 29.2997 53.9597 28.9588 53.0752 28.4475L40.6535 21.2564C40.2274 21.0114 39.8652 20.8516 39.4391 20.8516C38.6507 20.8516 38.1606 21.4482 38.1606 22.375V37.3537C38.1606 38.2806 38.6507 38.8878 39.4391 38.8878Z" fill="white"/>
</g>
<defs>
<linearGradient id="paint0_linear" x1="-22.6705" y1="26.9319" x2="27.7843" y2="85.2274" gradientUnits="userSpaceOnUse">
<stop stop-color="#2EA7FF"/>
<stop offset="1" stop-color="#0040E3"/>
</linearGradient>
<linearGradient id="paint1_linear" x1="23.182" y1="-16.0228" x2="-8.86365" y2="43.9772" gradientUnits="userSpaceOnUse">
<stop stop-color="white"/>
<stop offset="1" stop-color="white" stop-opacity="0.15"/>
</linearGradient>
<linearGradient id="paint2_linear" x1="15.7993" y1="30.7934" x2="44.6825" y2="58.7244" gradientUnits="userSpaceOnUse">
<stop stop-color="white"/>
<stop offset="1" stop-color="white" stop-opacity="0.15"/>
</linearGradient>
</defs>
</svg>
